<svg xmlns="http://www.w3.org/2000/svg" version="1.1" xmlns:xlink="http://www.w3.org/1999/xlink" width="1000" height="1000"><g clip-path="url(#SvgjsClipPath1114)"><rect width="1000" height="1000" fill="#ffffff"></rect><g transform="matrix(1,0,0,1,100,100)"><svg xmlns="http://www.w3.org/2000/svg" version="1.1" xmlns:xlink="http://www.w3.org/1999/xlink" width="800px" height="800px"><svg fill="#000000" width="800px" height="800px" viewBox="0 0 1920 1920" xmlns="http://www.w3.org/2000/svg">
    <path d="M0 426.667C0 191.025 191.025 0 426.667 0c235.641 0 426.666 191.025 426.666 426.667 0 235.641-191.025 426.666-426.666 426.666C191.025 853.333 0 662.308 0 426.667zm426.667 320c-176.731 0-320-143.269-320-320s143.269-320 320-320 320 143.269 320 320-143.269 320-320 320zM0 1920v-853.33h853.333V1920H0zm106.667-106.67v-640h640v640h-640zM1920 853.333 1440 0 960 853.333h960zm-182.38-106.666L1440 217.571l-297.62 529.096h595.24zM1386.67 1920v-373.33h-373.34V1440h373.34v-373.33h106.66V1440h373.34v106.67h-373.34V1920h-106.66Z" fill-rule="evenodd" clip-rule="evenodd"></path>
</svg></svg></g></g><defs><clipPath id="SvgjsClipPath1114"><rect width="1000" height="1000" x="0" y="0" rx="100" ry="100"></rect></clipPath></defs></svg>